<?xml version="1.0"?>
<svg xmlns="http://www.w3.org/2000/svg" id="Layer_1" enable-background="new 0 0 512 512" height="512px" viewBox="0 0 512 512" width="512px"><g><g clip-rule="evenodd" fill-rule="evenodd"><path d="m512 175.667c0-16.166-6.729-31.806-17.575-42.361 4.116-14.564 2.123-31.473-5.96-45.473s-21.729-24.18-36.4-27.897c-3.718-14.669-13.898-28.318-27.897-36.401-14-8.083-30.908-10.076-45.473-5.96-10.556-10.846-26.195-17.575-42.362-17.575-16.165 0-31.806 6.73-42.36 17.575-14.562-4.116-31.473-2.123-45.473 5.96s-24.18 21.731-27.898 36.401c-14.669 3.718-28.318 13.898-36.4 27.897-7.606 13.173-9.815 28.922-6.621 42.87 17.651.377 34.772 5.932 49.005 15.715 2.241-.171 4.499-.257 6.768-.257 15.871 0 31.482 4.17 45.147 12.06 15.858 9.156 28.501 22.933 36.206 39.071 16.139 7.705 29.915 20.348 39.071 36.208 9.157 15.86 13.218 34.112 11.821 51.941 9.771 14.228 15.32 31.34 15.697 48.978 13.948 3.195 29.697.985 42.87-6.621 13.999-8.083 24.179-21.731 27.897-36.401 14.669-3.718 28.317-13.898 36.4-27.897 8.083-14 10.076-30.909 5.96-45.473 10.847-10.554 17.577-26.195 17.577-42.36zm-208.866-32.134c-8.279 0-15-6.722-15-15s6.721-15 15-15 15 6.722 15 15-6.722 15-15 15zm96.4 64.267c-8.278 0-15-6.722-15-15 0-8.279 6.722-15 15-15s15 6.721 15 15c0 8.278-6.722 15-15 15zm0-96.4c-8.278 0-15-6.722-15-15 0-8.279 6.722-15 15-15s15 6.721 15 15c0 8.278-6.722 15-15 15z" data-original="#000000" class="active-path" data-old_color="#000000" fill="#E0E0E0"/><path d="m333.758 293.973c4.116-14.564 2.123-31.473-5.96-45.473s-21.729-24.18-36.4-27.897c-3.718-14.669-13.898-28.318-27.897-36.401-14-8.083-30.908-10.076-45.473-5.96-10.555-10.847-26.194-17.575-42.361-17.575-16.165 0-31.806 6.73-42.36 17.575-14.562-4.116-31.473-2.123-45.473 5.96s-24.18 21.731-27.898 36.401c-14.669 3.718-28.318 13.898-36.4 27.897-8.083 13.999-10.075 30.91-5.96 45.473-10.846 10.554-17.576 26.195-17.576 42.36s6.73 31.806 17.575 42.36c-4.116 14.564-2.124 31.473 5.96 45.473 8.083 14 21.729 24.181 36.401 27.898 3.718 14.669 13.898 28.318 27.897 36.4 14 8.083 30.908 10.077 45.473 5.96 10.555 10.846 26.196 17.576 42.361 17.576s31.806-6.73 42.36-17.575c14.564 4.116 31.474 2.123 45.473-5.96s24.179-21.731 27.897-36.401c14.669-3.718 28.317-13.898 36.4-27.897 8.083-14 10.076-30.909 5.96-45.473 10.846-10.555 17.575-26.195 17.575-42.36.001-16.166-6.728-31.807-17.574-42.361zm-222.358 73.427c-8.279 0-15-6.722-15-15s6.721-15 15-15 15 6.722 15 15-6.721 15-15 15zm49.267-80.333c-8.279 0-15-6.721-15-15s6.721-15 15-15 15 6.721 15 15-6.722 15-15 15zm30 128.533c-8.279 0-15-6.722-15-15s6.721-15 15-15 15 6.722 15 15-6.722 15-15 15zm49.267-80.333c-8.279 0-15-6.721-15-15 0-8.278 6.721-15 15-15s15 6.722 15 15-6.722 15-15 15z" data-original="#000000" class="active-path" data-old_color="#000000" fill="#E0E0E0"/></g></g> </svg>
