<?xml version="1.0"?>
<svg xmlns="http://www.w3.org/2000/svg" height="512px" viewBox="0 0 512 512.08833" width="512px" class=""><g><path d="m512.042969 256c0 141.386719-114.613281 256-256 256-141.382813 0-256.0000002-114.613281-256.0000002-256s114.6171872-256 256.0000002-256c141.386719 0 256 114.613281 256 256zm0 0" fill="#cfd8dc" data-original="#CFD8DC" class="" data-old_color="#cfd8dc" style="fill:#D3D3D3"/><path d="m256.042969 448c-128.894531-.199219-237.570313-96.128906-253.773438-224-11.988281 94.546875 29.558594 187.917969 107.8125 242.3125 78.253907 54.394531 180.25 60.796875 264.691407 16.613281 84.445312-44.179687 137.339843-131.625 137.269531-226.925781-.066407-10.703125-.808594-21.390625-2.222657-32-16.203124 127.871094-124.882812 223.800781-253.777343 224zm0 0" fill="#b0bec5" data-original="#B0BEC5" class="active-path" data-old_color="#b0bec5" style="fill:#B3B3B3"/><path d="m417.773438 330.960938 90.0625-30.015626c2.039062-11.5625 3.273437-23.246093 3.695312-34.976562l-110.320312 36.800781-46.398438-22.738281-11.648438-91.839844 32.382813-28.671875h117.472656c-4.542969-11.027343-9.859375-21.71875-15.902343-32h-94.671876l-22.160156-105.121093c-11.484375-5.132813-23.328125-9.410157-35.441406-12.796876l27.023438 128-30.816407 27.308594-94.816406-12.03125-20.636719-27.839844 57.292969-124.6875c-2.300781-.0625-4.542969-.351562-6.847656-.351562-9.699219.0429688-19.386719.632812-29.023438 1.761719l-49.679687 108.109375-113.617188-22.269532c-7.886718 8.933594-15.140625 18.40625-21.710937 28.351563l136.929687 26.847656 19.773438 26.71875-44.414063 86.480469h-44.800781l-88.65625-100.976562c-4.796875 11.351562-8.773438 23.035156-11.886719 34.960937l73.742188 84.03125-54.894531 97.296875c5.535156 10.96875 11.855468 21.523438 18.910156 31.582031l64.882812-114.894531h46.078125l66.367188 63.089844v40.351562l-112.976563 75.328125c9.804688 6.714844 20.066406 12.738281 30.707032 18.03125l95.695312-63.808593 76.527344 84.191406c11.484375-2.6875 22.769531-6.167969 33.777344-10.414063l-91.730469-100.945312v-40.335938l84.320312-44.945312 45.039063 22.097656 19.074218 133.535156c10.207032-7.285156 19.871094-15.304687 28.910157-24zm-175.296876-6.511719-58.71875-55.792969 42.832032-83.375 85.359375 10.832031 10.847656 85.535157zm0 0" fill="#fff" data-original="#FFF" class="" style="fill:#FFFFFF" data-old_color="#fff"/><path d="m384.042969 208h32v32h-32zm0 0" fill="#fff" data-original="#FFF" class="" style="fill:#FFFFFF" data-old_color="#fff"/><path d="m448.042969 208h32v32h-32zm0 0" fill="#fff" data-original="#FFF" class="" style="fill:#FFFFFF" data-old_color="#fff"/><g fill="#cfd8dc"><path d="m46.445312 338.433594-18.5625 32.878906c5.535157 10.96875 11.855469 21.523438 18.914063 31.582031l21.3125-37.742187c-7.800781-8.421875-15.039063-17.347656-21.664063-26.71875zm0 0" data-original="#CFD8DC" class="" data-old_color="#CFD8DC" style="fill:#D3D3D3"/><path d="m164.84375 430.910156-53.777344 35.859375c9.804688 6.714844 20.066406 12.738281 30.707032 18.03125l62.894531-41.9375c-13.578125-2.882812-26.898438-6.882812-39.824219-11.953125zm0 0" data-original="#CFD8DC" class="" data-old_color="#CFD8DC" style="fill:#D3D3D3"/><path d="m261.789062 447.710938 52.207032 57.425781c11.484375-2.691407 22.769531-6.167969 33.777344-10.417969l-46.402344-50.992188c-13.070313 2.351563-26.304688 3.683594-39.582032 3.984376zm0 0" data-original="#CFD8DC" class="" data-old_color="#CFD8DC" style="fill:#D3D3D3"/><path d="m396.171875 405.984375 8.304687 58.191406c10.207032-7.285156 19.871094-15.304687 28.910157-24l-8.09375-56.65625c-9.160157 8.175781-18.890625 15.679688-29.121094 22.464844zm0 0" data-original="#CFD8DC" class="" data-old_color="#CFD8DC" style="fill:#D3D3D3"/></g></g> </svg>
