<svg data-name="Layer 1" xmlns="http://www.w3.org/2000/svg" width="906.42" height="756"><defs><linearGradient id="a" x1="670.67" y1="828" x2="670.67" y2="91.4" gradientUnits="userSpaceOnUse"><stop offset="0" stop-color="gray" stop-opacity=".25"/><stop offset=".54" stop-color="gray" stop-opacity=".12"/><stop offset="1" stop-color="gray" stop-opacity=".1"/></linearGradient><clipPath id="b" transform="translate(-146.79 -72)"><path data-name="&lt;Clipping Path&gt;" d="M413.56 230.63s50.57 15.17 121.38-7.59 217.47 32.87 217.47 32.87 116.32 0 288.28-73.33c0 0-78.39 75.86-22.76 121.38s5.06 111.26-60.69 136.55-70.8 75.86-65.75 123.91 0 2.53 0 2.53-197.24-35.4-247.82 86l-250.34-394.5s-15.17-30.34 20.23-27.82z" fill="#0a7e71"/></clipPath></defs><path d="M1028.76 300.38a65.25 65.25 0 01-7.44-7.1v1.83c-18.17-18.54-17.53-41-10.09-61.49l2.46-.91c11.68-30.88 38.45-56.78 38.45-56.78l-4 1.68c1.24-1.28 1.95-2 1.95-2-166 70.81-281.5 74.94-294.38 75.18-7.94-3-73.36-26.82-136.65-35.7-19.91-2.89-39.68-4.34-57.44-3.22l-19.94-85.61-.38.23c-.93-7.34-4.38-23.32-17-33.23-16.85-13.16-4.3 47.39-4.3 47.39l1.38-.65 7.06 76.24-3.44 2.88a262.06 262.06 0 01-61.32 10.57 43.15 43.15 0 009.32-12.43 8.29 8.29 0 007.51-2.23 10.19 10.19 0 001.65-2.31 22 22 0 002.2-4.73c4.14-11.12 8.66-22.27 10-34.05s-.86-24.56-8.79-33.39-22.39-12.19-32.1-5.37c-2.51 1.76-4.64 4.1-7.4 5.44-8.41 4.07-17.74-2.53-25.57-7.63-9.1-5.93-21.12-10.18-30.55-4.8a18.7 18.7 0 00-7 7.18 22.84 22.84 0 00-3.47 13.75c.54 7.77 4.73 15 10.34 20.36a17.65 17.65 0 006.77 4.42 12.56 12.56 0 002 .44 43.11 43.11 0 00-6.26 32.46l-3.49 21.12c-3.1 1.45-4.83 4.62-5.8 7.72-14.59.43-29.52 10.43-29.52 10.43l-57.34 57.34c-14.87 10.09-4.78 28.67-4.78 28.67l33.45 100.35 1.85-1.38c6.86 12.5 27 47 30.87 29.8 4.73-20.84-10-39.76-10-39.76h-.18l-3.81-4.9-14-74.6L347.29 324l23.8-3.47L372.15 475c-43.54 114.69-38.23 167.25-38.23 167.25l38.23 143.36 4.88-.81 1.18 4.72.43-.15 2.12 10.58h-3.82l-4.78 14.34s-24.42-.53-23.89 4.78 13.81 14.34 47.79 4.78l9.56-9.56s4.78-4.78-4.78-14.34h-.68l-2.65-18.56 3.33-.56-28.69-143.39c23.89-19.65 66.9-95.57 66.9-95.57s43 75.93 66.9 95.57l-28.67 143.35 3.33.56-2.61 18.56h-.68c-9.56 9.56-4.78 14.34-4.78 14.34l9.56 9.56c34 9.56 47.26.53 47.79-4.78S506 814.25 506 814.25l-4.78-14.34h-3.82l2.75-13.76.49-1.47 5.36.89 38.23-143.36s-.71-82.83-37.83-186.37l76.26 106.94L643 657.92a129.34 129.34 0 0111.73-22l43.66-40.79c50.75-30.19 118.5-32 160.34-29.51l38.58 4.17 18.14-95.56c10.57-13.61 26.26-25.35 49.07-34.13 47.32-18.2 87-56.84 86.68-94.41.69.77 1.36 1.54 2 2.32.49-16.62-6.72-33.12-24.44-47.63zM505 442.13l-.05-1.76 2.2 3.46z" transform="translate(-146.79 -72)" fill="url(#a)"/><path d="M208.88 350h-.18l-8.49-10.95-13.74 13.74 1.52 2.28-1.73.42s27.73 53.56 32.35 33.23-9.73-38.72-9.73-38.72z" fill="#fdb797"/><path data-name="&lt;Clipping Path&gt;" d="M266.77 158.63s50.57 15.17 121.38-7.59 217.47 32.87 217.47 32.87 116.32 0 288.28-73.33c0 0-78.39 75.86-22.76 121.38s5.06 111.26-60.69 136.55-70.8 75.86-65.75 123.91 0 2.53 0 2.53-197.24-35.4-247.82 86l-250.34-394.5s-15.17-30.34 20.23-27.82z" fill="#0a7e71"/><g clip-path="url(#b)"><path opacity=".1" d="M141.46 84.18l629.65 452.64 37.93-111.26L141.46 84.18zm37.93 141.61l348.96 354.02 50.58-37.93-399.54-316.09z"/></g><path d="M281.38 194.32s50.57 15.17 121.38-7.59 217.45 32.88 217.45 32.88 94.1 0 238.14-53.36c11.39-30.12 37.49-55.38 37.49-55.38-172 73.33-288.28 73.33-288.28 73.33s-146.67-55.63-217.47-32.87-121.38 7.59-121.38 7.59c-35.4-2.53-20.23 27.82-20.23 27.82l10.41 16.41c2.17-5.53 8.22-9.85 22.49-8.83zm591.73 37.93a63.64 63.64 0 01-7.26-6.93c-.58 14.93 4.57 29.78 19.9 42.33a78.94 78.94 0 0111.18 11.06c.49-16.22-6.54-32.32-23.82-46.46z" opacity=".1"/><path fill="#fdb797" d="M358.58 700.77l-4.66 23.31h-18.65l4.67-32.63 18.64 9.32z"/><path opacity=".1" d="M358.2 703.99l-1.31 3.94-18.39-5.25 1.31-2.63 18.39 3.94z"/><path fill="#fdb797" d="M237.41 700.77l4.66 23.31h18.64l-4.66-32.63-18.64 9.32z"/><path opacity=".1" d="M237.34 703.99l1.31 5.25 18.4-6.56v-2.63l-19.71 3.94z"/><path d="M398.03 66.49s-.52-23.36-16.93-36.22-4.13 46.19-4.13 46.19z" fill="#fdb797"/><path d="M260.71 719.42h-23.3l-4.66 14s-23.82-.52-23.3 4.66 13.46 14 46.6 4.66l9.32-9.32s4.66-4.68-4.66-14zm74.56 0h23.3l4.66 14s23.82-.52 23.3 4.66-13.46 14-46.6 4.66l-9.32-9.32s-4.66-4.68 4.66-14zm27.94-316.91H232.75c-42.46 111.85-37.28 163.12-37.28 163.12l37.28 139.81 28-4.66-28-139.78c23.3-19.16 65.25-93.21 65.25-93.21s41.93 74.01 65.21 93.21l-28 139.81 28 4.66 37.28-139.81s5.21-51.3-37.28-163.15z" fill="#333"/><path d="M232.75 404.32s74 28 130.49 0H232.75z" opacity=".1"/><path d="M228.63 235.19l-37.28 37.28 14 74.57-18.64 14-32.62-97.87s-9.84-18.12 4.66-28l55.93-55.93s24-16.08 40.5-7.84-26.87 63.2-26.87 63.2" fill="#3ad29f"/><path d="M228.08 234.73l4.66 167.78s74 28 130.49 0l-4.66-157.94-1.19-5.22.86-2.57 56-46.44c15.35-8.45 7.24-27.41 7.24-27.41l-23.4-100.47-19.87 12.18 7 75.54-39.88 33.08-1-.05v.25l-102.23-4.65" fill="#3ad29f"/><rect x="279.61" y="155.76" width="37.28" height="41.94" rx="15.83" ry="15.83" fill="#fdb797"/><path d="M280.8 173.67a41.93 41.93 0 0036-4 18.71 18.71 0 00-17.52-12.29 18.7 18.7 0 00-18.48 16.29z" opacity=".1"/><circle cx="293.59" cy="132.46" r="41.94" fill="#fdb797"/><path d="M264.46 109.33a21.6 21.6 0 01-7.8-.44 17.22 17.22 0 01-6.6-4.32c-5.48-5.26-9.56-12.28-10.09-19.86s3-15.61 9.57-19.37c9.2-5.24 20.93-1.1 29.8 4.68 7.63 5 16.74 11.41 24.94 7.44 2.69-1.3 4.77-3.59 7.22-5.3 9.47-6.65 23.57-3.37 31.3 5.24s9.9 21.07 8.57 32.57-5.73 22.37-9.77 33.21a16.11 16.11 0 01-3.13 5.83c-4.92 5.05-14.13 1.13-17.37-5.13-5.63-10.89 0-29.77-13.3-36.12-10.59-5.04-31.97.83-43.34 1.57z" opacity=".1"/><path d="M265.09 108.29a21.6 21.6 0 01-7.8-.44 17.22 17.22 0 01-6.6-4.32c-5.48-5.26-9.56-12.28-10.09-19.86s3-15.61 9.57-19.37c9.2-5.24 20.93-1.1 29.8 4.68 7.63 5 16.74 11.41 24.94 7.44 2.69-1.3 4.77-3.59 7.22-5.3 9.47-6.65 23.57-3.37 31.3 5.24s9.9 21.07 8.57 32.57-5.79 22.37-9.79 33.21a16.11 16.11 0 01-3.13 5.83c-4.92 5.05-14.13 1.13-17.37-5.13-5.63-10.89 0-29.77-13.3-36.12-10.54-5.04-31.96.84-43.32 1.57z" fill="#333"/><ellipse cx="316.89" cy="132.46" rx="4.66" ry="9.32" fill="#fdb797"/><path opacity=".1" d="M228.14 234.71l11.83 5.54-11.83 14.46v-20zm130.06 2.04l-7.88 8.76 5.25 7.88 3.07-8.76-.44-7.88z"/><path d="M298.8 194v7.59s-55.35-10.11-56.76-25.29l36.53 2.53zm0 0v7.59s55.35-10.11 56.76-25.29l-36.53 2.53z" fill="#0a7e71"/><path opacity=".1" d="M637.09 276.36l182.07 42.99-65.75 27.82-116.32-70.81z"/><path d="M242.21 176.67s0-15.89 10.6-15.89S274 192.57 274 192.57z" fill="#0a7e71"/><circle cx="11.56" cy="293.66" r="6.94" fill="#f55f44" opacity=".5"/><circle cx="98.27" cy="456.68" r="6.94" fill="#f55f44" opacity=".5"/><circle cx="837.05" cy="19.65" r="6.94" fill="#f55f44" opacity=".5"/><path d="M502.8 24.23a4.25 4.25 0 01-2.37-5.13 2 2 0 00.09-.47 2.13 2.13 0 00-3.83-1.41 2 2 0 00-.24.42 4.25 4.25 0 01-5.12 2.36 2 2 0 00-.47-.09 2.13 2.13 0 00-1.41 3.83 2 2 0 00.42.24 4.25 4.25 0 012.34 5.12 2 2 0 00-.09.47 2.13 2.13 0 003.83 1.41 2 2 0 00.24-.42 4.25 4.25 0 015.13-2.37 2 2 0 00.47.09 2.13 2.13 0 001.42-3.82 2 2 0 00-.41-.23zm341.06 421.99a4.25 4.25 0 01-2.37-5.13 2 2 0 00.09-.47 2.13 2.13 0 00-3.83-1.41 2 2 0 00-.24.42 4.25 4.25 0 01-5.13 2.37 2 2 0 00-.47-.09 2.13 2.13 0 00-1.41 3.83 2 2 0 00.42.24 4.25 4.25 0 012.37 5.13 2 2 0 00-.09.47 2.13 2.13 0 003.83 1.41 2 2 0 00.24-.42 4.25 4.25 0 015.13-2.37 2 2 0 00.47.09 2.13 2.13 0 001.41-3.83 2 2 0 00-.42-.24z" fill="#4d8af0" opacity=".5"/><circle cx="587.32" cy="643.97" r="6.94" fill="#47e6b1" opacity=".5"/><circle cx="11.56" cy="595.42" r="6.94" fill="#47e6b1" opacity=".5"/><circle cx="566.51" cy="92.49" r="6.94" fill="#47e6b1" opacity=".5"/><g opacity=".5" fill="#47e6b1"><path d="M8.09 0h3.47v19.65H8.09z"/><path d="M19.65 8.09v3.47H0V8.09z"/></g><g opacity=".5" fill="#47e6b1"><path d="M71.68 188.45h3.47v19.65h-3.47z"/><path d="M83.24 196.54v3.47H63.59v-3.47z"/></g><g opacity=".5" fill="#47e6b1"><path d="M707.56 104.05h3.47v19.65h-3.47z"/><path d="M719.13 112.14v3.47h-19.65v-3.47z"/></g></svg>