<svg xmlns="http://www.w3.org/2000/svg" viewBox="0 0 512.108 512.108"><path d="M11.942 280.485s-22.457 14.292-4.087 36.749c0 0-37.932 44.341 52.913 53.53 0 0 28.584-24.497 40.828 8.165 0 0 56.302-7.601 94.067-24.956 0 0 30.623-11.229 40.828 0 10.214 11.229 72.934 45.162 85.945 8.245 0 0 18.238-6.012 24.488 12.244 0 0 35.31 15.951 48.808-12.323l12.235-4.078s31.267 25.044 44.535-7.618l12.253-8.165 8.545-.556s59.639-25.565 31.055-77.621c0 0-12.244 22.449-20.409 28.575 0 0-73.251 83.421-276.03 12.306 0 0-40.819-16.419-130.639-5.535-.002 0-22.3 1.668-65.335-18.962" fill="#acaaaf"/><path d="M11.942 280.485c42.417 20.418 65.333 18.962 65.333 18.962 89.821-10.884 130.639 5.535 130.639 5.535 202.778 71.115 276.03-12.306 276.03-12.306 8.165-6.126 20.409-28.575 20.409-28.575v-4.087s-1.457-20.356-80.049-20.356c0 0-61.926 4.423-69.402-24.497 0 0-10.893-5.102-12.253 4.087l-16.331-12.253s-5.447-20.754-20.409-8.166l-12.253-8.166s-2.728-14.627-16.34-8.166c0 0-11.564-4.767-16.322-12.244 0 0-3.063-11.229-12.253-4.087 0 0-11.564 2.039-24.497-16.331-12.924-18.37-55.455-30.279-44.906 12.244 0 0-14.627 25.176-65.324 20.418 0 0-22.802-3.063-32.671-16.331-9.86-13.268-52.047-18.37-48.984 4.087 3.054 22.449-4.078 24.497-4.078 24.497s-28.284 36.502-16.34 81.655v4.08z" fill="#dedee1"/><path d="M223.736 208.14c-2.26 0-4.52-.865-6.241-2.586a8.817 8.817 0 010-12.482l34.154-34.154c3.452-3.452 9.039-3.452 12.482 0 3.452 3.443 3.452 9.031 0 12.482l-34.154 34.154a8.805 8.805 0 01-6.241 2.586m33.629 19.332c-2.26 0-4.52-.865-6.241-2.586a8.817 8.817 0 010-12.482l33.774-33.774c3.452-3.452 9.039-3.452 12.482 0 3.452 3.443 3.452 9.031 0 12.482l-33.774 33.774a8.803 8.803 0 01-6.241 2.586m32.095 12.048c-2.26 0-4.52-.865-6.241-2.586a8.817 8.817 0 010-12.482l32.371-32.371a8.817 8.817 0 0112.482 0 8.817 8.817 0 010 12.482l-32.371 32.371a8.81 8.81 0 01-6.241 2.586" fill="#acaaaf"/></svg>