<svg xmlns="http://www.w3.org/2000/svg" height="512" viewBox="0 0 512 512.088" width="512"><path d="M512.043 256c0 141.387-114.613 256-256 256-141.383 0-256-114.613-256-256S114.66 0 256.043 0c141.387 0 256 114.613 256 256zm0 0" fill="#d3d3d3" data-original="#CFD8DC" data-old_color="#cfd8dc"/><path d="M256.043 448c-128.895-.2-237.57-96.129-253.773-224-11.989 94.547 29.558 187.918 107.812 242.313 78.254 54.394 180.25 60.796 264.691 16.613C459.22 438.746 512.113 351.3 512.043 256a254.14 254.14 0 00-2.223-32c-16.203 127.871-124.882 223.8-253.777 224zm0 0" fill="#b3b3b3" data-original="#B0BEC5" class="active-path" data-old_color="#b0bec5"/><path d="M417.773 330.96l90.063-30.015a253.914 253.914 0 003.695-34.976l-110.32 36.8-46.399-22.738-11.648-91.84 32.383-28.671H493.02a254.374 254.374 0 00-15.903-32h-94.672l-22.16-105.122a255.364 255.364 0 00-35.441-12.796l27.023 128-30.816 27.308-94.817-12.031-20.636-27.84L262.89.352C260.59.289 258.348 0 256.043 0c-9.7.043-19.387.633-29.023 1.762l-49.68 108.11-113.617-22.27a256.33 256.33 0 00-21.711 28.351l136.93 26.848 19.773 26.719L154.3 256h-44.8L20.844 155.023a255.85 255.85 0 00-11.887 34.961l73.742 84.032-54.894 97.296a255.333 255.333 0 0018.91 31.583L111.598 288h46.078l66.367 63.09v40.351L111.066 466.77a256.574 256.574 0 0030.707 18.03l95.696-63.808 76.527 84.192a255.827 255.827 0 0033.777-10.414l-91.73-100.946v-40.336l84.32-44.945 45.04 22.098 19.074 133.535a257.356 257.356 0 0028.91-24zm-175.296-6.51l-58.72-55.794 42.833-83.375 85.36 10.832 10.847 85.535zm0 0" fill="#fff" data-original="#FFF" data-old_color="#fff"/><path d="M384.043 208h32v32h-32zm64 0h32v32h-32zm0 0" fill="#fff" data-original="#FFF" data-old_color="#fff"/><path d="M46.445 338.434l-18.562 32.879a254.88 254.88 0 0018.914 31.582l21.312-37.743a261.288 261.288 0 01-21.664-26.718zm118.399 92.476l-53.778 35.86a256.574 256.574 0 0030.707 18.03l62.895-41.937a252.885 252.885 0 01-39.824-11.953zm96.946 16.8l52.206 57.427a255.844 255.844 0 0033.777-10.418l-46.402-50.992a256.323 256.323 0 01-39.582 3.984zm134.382-41.726l8.305 58.192a257.356 257.356 0 0028.91-24l-8.094-56.656a257.28 257.28 0 01-29.121 22.464zm0 0" data-original="#CFD8DC" data-old_color="#CFD8DC" fill="#d3d3d3"/></svg>