<svg height="512" viewBox="0 0 64 64" width="512" xmlns="http://www.w3.org/2000/svg"><path d="M37.19 2v27.848c0 2.658-1.058 5.206-2.94 7.083l-9.56 9.528a9.149 9.149 0 000 12.958 9.207 9.207 0 0013 0l12.501-12.461a17 17 0 004.999-12.04V2z" fill="#ccc"/><path d="M35.19 61v-.05A11.95 11.95 0 0023.24 49h-.34c-1.625 3.404-1.035 7.602 1.79 10.417 2.849 2.84 7.09 3.419 10.517 1.756z" fill="#716e66"/><path d="M24 2v27.848c0 2.658-1.058 5.206-2.94 7.083l-9.56 9.528a9.149 9.149 0 000 12.958 9.207 9.207 0 0013 0l12.501-12.461A17 17 0 0042 34.916V2z" fill="#e6e6e6"/><path d="M22 61v-.05A11.95 11.95 0 0010.05 49h-.34c-1.625 3.404-1.035 7.602 1.79 10.417 2.849 2.84 7.09 3.419 10.517 1.756zm2-55h5v22h-5z" fill="#716e66"/><path d="M29 6h4v22h-4zm13 22h-5V6h5z" fill="#fff"/><path d="M37 28h-4V6h4zm5-22h4v22h-4zm8 0h5.19v22H50z" fill="#716e66"/><path d="M50 28h-4V6h4z" fill="#fff"/></svg>