<svg viewBox="0 0 273 64" fill="none" xmlns="http://www.w3.org/2000/svg"><path fill-rule="evenodd" clip-rule="evenodd" d="M32 16c-7.2 0-11.7 3.6-13.5 10.8 2.7-3.6 5.85-4.95 9.45-4.05 2.054.514 3.522 2.004 5.147 3.653C35.744 29.09 38.808 32.2 45.5 32.2c7.2 0 11.7-3.6 13.5-10.8-2.7 3.6-5.85 4.95-9.45 4.05-2.054-.514-3.522-2.004-5.147-3.653C41.756 19.11 38.692 16 32 16zM18.5 32.2C11.3 32.2 6.8 35.8 5 43c2.7-3.6 5.85-4.95 9.45-4.05 2.054.514 3.522 2.004 5.147 3.653C22.244 45.29 25.308 48.4 32 48.4c7.2 0 11.7-3.6 13.5-10.8-2.7 3.6-5.85 4.95-9.45 4.05-2.054-.514-3.522-2.004-5.147-3.653C28.256 35.31 25.192 32.2 18.5 32.2z" fill="#16BDCA"/><path fill-rule="evenodd" clip-rule="evenodd" d="M85.996 29.652h-4.712v9.12c0 2.432 1.596 2.394 4.712 2.242V44.7c-6.308.76-8.816-.988-8.816-5.928v-9.12h-3.496V25.7h3.496v-5.104l4.104-1.216v6.32h4.712v3.952zm17.962-3.952h4.104v19h-4.104v-2.736c-1.444 2.014-3.686 3.23-6.65 3.23-5.168 0-9.462-4.37-9.462-9.994 0-5.662 4.294-9.994 9.462-9.994 2.964 0 5.206 1.216 6.65 3.192V25.7zm-6.004 15.58c3.42 0 6.004-2.546 6.004-6.08 0-3.534-2.584-6.08-6.004-6.08-3.42 0-6.004 2.546-6.004 6.08 0 3.534 2.584 6.08 6.004 6.08zm16.948-18.43c-1.444 0-2.622-1.216-2.622-2.622a2.627 2.627 0 012.622-2.622 2.627 2.627 0 012.622 2.622c0 1.406-1.178 2.622-2.622 2.622zM112.85 44.7v-19h4.104v19h-4.104zm8.854 0V16.96h4.104V44.7h-4.104zm30.742-19h4.332l-5.966 19h-4.028l-3.952-12.806-3.99 12.806h-4.028l-5.966-19h4.332l3.686 13.11 3.99-13.11h3.914l3.952 13.11 3.724-13.11zm9.424-2.85c-1.444 0-2.622-1.216-2.622-2.622a2.627 2.627 0 012.622-2.622 2.627 2.627 0 012.622 2.622c0 1.406-1.178 2.622-2.622 2.622zm-2.052 21.85v-19h4.104v19h-4.104zm18.848-19.494c4.256 0 7.296 2.888 7.296 7.828V44.7h-4.104V33.452c0-2.888-1.672-4.408-4.256-4.408-2.698 0-4.826 1.596-4.826 5.472V44.7h-4.104v-19h4.104v2.432c1.254-1.976 3.306-2.926 5.89-2.926zm26.752-7.106h4.104v26.6h-4.104v-2.736c-1.444 2.014-3.686 3.23-6.65 3.23-5.168 0-9.462-4.37-9.462-9.994 0-5.662 4.294-9.994 9.462-9.994 2.964 0 5.206 1.216 6.65 3.192V18.1zm-6.004 23.18c3.42 0 6.004-2.546 6.004-6.08 0-3.534-2.584-6.08-6.004-6.08-3.42 0-6.004 2.546-6.004 6.08 0 3.534 2.584 6.08 6.004 6.08zm23.864 3.914c-5.738 0-10.032-4.37-10.032-9.994 0-5.662 4.294-9.994 10.032-9.994 3.724 0 6.954 1.938 8.474 4.902l-3.534 2.052c-.836-1.786-2.698-2.926-4.978-2.926-3.344 0-5.89 2.546-5.89 5.966 0 3.42 2.546 5.966 5.89 5.966 2.28 0 4.142-1.178 5.054-2.926l3.534 2.014c-1.596 3.002-4.826 4.94-8.55 4.94zm15.314-14.25c0 3.458 10.222 1.368 10.222 8.398 0 3.8-3.306 5.852-7.41 5.852-3.8 0-6.536-1.71-7.752-4.446l3.534-2.052c.608 1.71 2.128 2.736 4.218 2.736 1.824 0 3.23-.608 3.23-2.128 0-3.382-10.222-1.482-10.222-8.284 0-3.572 3.078-5.814 6.954-5.814 3.116 0 5.7 1.444 7.03 3.952l-3.458 1.938c-.684-1.482-2.014-2.166-3.572-2.166-1.482 0-2.774.646-2.774 2.014zm17.518 0c0 3.458 10.222 1.368 10.222 8.398 0 3.8-3.306 5.852-7.41 5.852-3.8 0-6.536-1.71-7.752-4.446l3.534-2.052c.608 1.71 2.128 2.736 4.218 2.736 1.824 0 3.23-.608 3.23-2.128 0-3.382-10.222-1.482-10.222-8.284 0-3.572 3.078-5.814 6.954-5.814 3.116 0 5.7 1.444 7.03 3.952l-3.458 1.938c-.684-1.482-2.014-2.166-3.572-2.166-1.482 0-2.774.646-2.774 2.014z" fill="#161E2E"/></svg>