<svg id="Layer_3" enable-background="new 0 0 64 64" height="512" viewBox="0 0 64 64" width="512" xmlns="http://www.w3.org/2000/svg"><g><path d="m37.19 2v27.848c0 2.658-1.058 5.206-2.94 7.083l-9.56 9.528c-3.586 3.575-3.586 9.383 0 12.958 3.593 3.582 9.407 3.582 13 0l12.501-12.461c3.2-3.19 4.999-7.522 4.999-12.04v-32.916z" fill="#ccc"/><path d="m35.19 61v-.05c0-3.169-1.259-6.209-3.5-8.45s-5.28-3.5-8.45-3.5h-.05-.29c-1.625 3.404-1.035 7.602 1.79 10.417 2.849 2.84 7.09 3.419 10.517 1.756z" fill="#716e66"/><path d="m24 2v27.848c0 2.658-1.058 5.206-2.94 7.083l-9.56 9.528c-3.586 3.575-3.586 9.383 0 12.958 3.593 3.582 9.407 3.582 13 0l12.501-12.461c3.2-3.19 4.999-7.522 4.999-12.04v-32.916z" fill="#e6e6e6"/><path d="m22 61v-.05c0-3.169-1.259-6.209-3.5-8.45s-5.28-3.5-8.45-3.5h-.05-.29c-1.625 3.404-1.035 7.602 1.79 10.417 2.849 2.84 7.09 3.419 10.517 1.756z" fill="#716e66"/><path d="m24 6h5v22h-5z" fill="#716e66"/><path d="m29 6h4v22h-4z" fill="#fff"/><path d="m37 6h5v22h-5z" fill="#fff" transform="matrix(-1 0 0 -1 79 34)"/><g fill="#716e66"><path d="m33 6h4v22h-4z" transform="matrix(-1 0 0 -1 70 34)"/><path d="m42 6h4v22h-4z"/><path d="m50 6h5.19v22h-5.19z"/></g><path d="m46 6h4v22h-4z" fill="#fff" transform="matrix(-1 0 0 -1 96 34)"/></g></svg>